HIERARCHY
ROOT joint_Root
{
	OFFSET 0.0 0.0 0.0
	CHANNELS 6 Xposition Yposition Zposition Zrotation Xrotation Yrotation 
	JOINT Hips
	{
		OFFSET -0.726466 93.3139 -2.00062
		CHANNELS 6 Xposition Yposition Zposition Zrotation Xrotation Yrotation 
		JOINT Spine
		{
			OFFSET 15.7357 0.0 0.0
			CHANNELS 6 Xposition Yposition Zposition Zrotation Xrotation Yrotation 
			JOINT Chest
			{
				OFFSET 8.98455 -0.406207 0.0
				CHANNELS 6 Xposition Yposition Zposition Zrotation Xrotation Yrotation 
				JOINT Neck
				{
					OFFSET 16.3773 0.0 0.0
					CHANNELS 6 Xposition Yposition Zposition Zrotation Xrotation Yrotation 
					JOINT Head
					{
						OFFSET 6.45672 0.0 0.0
						CHANNELS 6 Xposition Yposition Zposition Zrotation Xrotation Yrotation 
						End Site
						{
							OFFSET 0.0 0.0 0.0
						}
					}
				}
				JOINT Shoulder_L
				{
					OFFSET 12.9942 -0.242716 4.98039
					CHANNELS 6 Xposition Yposition Zposition Zrotation Xrotation Yrotation 
					JOINT UpperArm_L
					{
						OFFSET 5.34809 0.0 0.0
						CHANNELS 6 Xposition Yposition Zposition Zrotation Xrotation Yrotation 
						JOINT LowerArm_L
						{
							OFFSET 24.3286 1.87007e-05 0.0
							CHANNELS 6 Xposition Yposition Zposition Zrotation Xrotation Yrotation 
							JOINT Hand_L
							{
								OFFSET 22.2916 0.0 0.0
								CHANNELS 6 Xposition Yposition Zposition Zrotation Xrotation Yrotation 
								End Site
								{
									OFFSET 0.0 0.0 0.0
								}
							}
						}
					}
				}
				JOINT Shoulder_R
				{
					OFFSET 12.9945 -0.242716 -4.98039
					CHANNELS 6 Xposition Yposition Zposition Zrotation Xrotation Yrotation 
					JOINT UpperArm_R
					{
						OFFSET -5.34813 0.0 0.0
						CHANNELS 6 Xposition Yposition Zposition Zrotation Xrotation Yrotation 
						JOINT LowerArm_R
						{
							OFFSET -24.3289 0.000322201 0.0
							CHANNELS 6 Xposition Yposition Zposition Zrotation Xrotation Yrotation 
							JOINT Hand_R
							{
								OFFSET -22.2915 -0.000108084 0.0
								CHANNELS 6 Xposition Yposition Zposition Zrotation Xrotation Yrotation 
								End Site
								{
									OFFSET 0.0 0.0 0.0
								}
							}
						}
					}
				}
			}
		}
		JOINT UpperLeg_L
		{
			OFFSET -2.19248 -6.46944 0.0
			CHANNELS 6 Xposition Yposition Zposition Zrotation Xrotation Yrotation 
			JOINT LowerLeg_L
			{
				OFFSET 39.0811 0.0 -1.23785e-05
				CHANNELS 6 Xposition Yposition Zposition Zrotation Xrotation Yrotation 
				JOINT Foot_L
				{
					OFFSET 40.9854 0.0 -1.26872e-05
					CHANNELS 6 Xposition Yposition Zposition Zrotation Xrotation Yrotation 
					JOINT Toes_L
					{
						OFFSET 11.7543 0.0 0.0
						CHANNELS 6 Xposition Yposition Zposition Zrotation Xrotation Yrotation 
						End Site
						{
							OFFSET 0.0 0.0 0.0
						}
					}
				}
			}
		}
		JOINT UpperLeg_R
		{
			OFFSET -2.19251 6.46944 0.0
			CHANNELS 6 Xposition Yposition Zposition Zrotation Xrotation Yrotation 
			JOINT LowerLeg_R
			{
				OFFSET -39.0811 -0.00228153 -0.0401928
				CHANNELS 6 Xposition Yposition Zposition Zrotation Xrotation Yrotation 
				JOINT Foot_R
				{
					OFFSET -40.9854 0.0 0.0
					CHANNELS 6 Xposition Yposition Zposition Zrotation Xrotation Yrotation 
					JOINT Toes_R
					{
						OFFSET -11.7543 0.0 0.0
						CHANNELS 6 Xposition Yposition Zposition Zrotation Xrotation Yrotation 
						End Site
						{
							OFFSET 0.0 0.0 0.0
						}
					}
				}
			}
		}
	}
}
MOTION
Frames:	5
Frame Time:	0.0333333
0.000000 0.000000 0.000000 0.000000 0.000000 -0.000000 -2.080800 92.311500 -1.481570 88.519600 -0.565979 5.141550 15.735700 0.000005 -0.000001 75.910300 85.273300 -74.066800 8.984550 -0.406207 -0.000000 1.445610 -2.401800 3.714590 16.377300 -0.000001 -0.000001 4.941200 -1.535260 -3.478020 6.456720 -0.000001 -0.000000 7.661560 -1.482610 -1.974220 12.994200 -0.242716 4.980390 -87.287500 -7.290890 -69.528300 5.348090 -0.000007 -0.000001 -82.821600 -27.397000 -92.716400 24.328600 0.000019 0.000005 3.316940 0.187070 -86.775800 22.291600 -0.000001 0.000005 18.504900 5.600220 -11.355500 12.994500 -0.242716 -4.980390 88.498300 4.771190 -72.506700 -5.348130 -0.000001 -0.000004 -64.909700 38.927800 -14.968400 -24.328900 0.000322 -0.000009 2.222660 8.428810 -14.837300 -22.291500 -0.000108 -0.000004 9.642260 5.395370 -2.787490 -2.192480 -6.469440 -0.000000 -174.528000 -8.767330 -2.058110 39.081100 -0.000007 -0.000012 -0.119125 0.285970 22.614900 40.985400 -0.000006 -0.000013 -0.902780 5.240190 -65.391000 11.754300 -0.000000 0.000003 -0.000044 -0.000508 -16.597300 -2.192510 6.469440 -0.000001 -179.891000 14.604900 -179.661000 -39.081100 -0.002282 -0.040193 -0.077676 0.224976 19.800300 -40.985400 0.000008 0.000006 3.242110 8.513780 -65.521600 -11.754300 -0.000006 -0.000006 -0.008739 -0.093957 -20.399900
0.000000 0.000000 0.000000 0.000000 0.000000 -0.000000 -2.074930 92.320800 -1.511530 88.527700 -0.519932 5.118120 15.735700 0.000005 -0.000001 76.113300 85.267600 -74.283900 8.984550 -0.406207 -0.000000 1.464050 -2.371010 3.686330 16.377300 -0.000001 -0.000001 4.914950 -1.539430 -3.511770 6.456720 -0.000001 -0.000000 7.679610 -1.525520 -1.997760 12.994200 -0.242716 4.980390 -87.282000 -7.291900 -69.492600 5.348090 -0.000007 -0.000001 -82.868900 -27.360500 -92.684200 24.328600 0.000019 0.000005 3.172290 0.184911 -86.667700 22.291600 -0.000001 0.000005 18.626500 5.603270 -11.540000 12.994500 -0.242716 -4.980390 88.495500 4.793630 -72.552000 -5.348130 -0.000001 -0.000004 -64.833300 39.089100 -15.013300 -24.328900 0.000322 -0.000009 2.209740 8.326290 -14.927200 -22.291500 -0.000108 -0.000004 9.667540 5.396160 -2.812950 -2.192480 -6.469440 -0.000000 -174.558000 -8.753040 -2.076140 39.081100 -0.000007 -0.000012 -0.117470 0.282750 22.560900 40.985400 -0.000006 -0.000013 -0.890836 5.243140 -65.347300 11.754300 -0.000000 0.000003 -0.000044 -0.000509 -16.597400 -2.192510 6.469440 -0.000001 -179.891000 14.589600 -179.686000 -39.081100 -0.002282 -0.040193 -0.077138 0.223995 19.758600 -40.985400 0.000008 0.000006 3.248790 8.489090 -65.482400 -11.754300 -0.000006 -0.000006 -0.008834 -0.094706 -20.430500
0.000000 0.000000 0.000000 0.000000 0.000000 -0.000000 -2.062190 92.325600 -1.535030 88.533100 -0.457063 5.106240 15.735700 0.000005 -0.000001 76.185000 85.252800 -74.381300 8.984550 -0.406207 -0.000000 1.494850 -2.364650 3.635500 16.377300 -0.000001 -0.000001 4.839960 -1.469780 -3.594890 6.456720 -0.000001 -0.000000 7.812830 -1.455810 -1.979130 12.994200 -0.242716 4.980390 -87.283500 -7.281090 -69.475000 5.348090 -0.000007 -0.000001 -82.721300 -27.411200 -92.276700 24.328600 0.000019 0.000005 3.127050 0.172594 -86.844300 22.291600 -0.000001 0.000005 18.922700 5.604530 -11.616600 12.994500 -0.242716 -4.980390 88.482700 4.844690 -72.586600 -5.348130 -0.000001 -0.000004 -64.793000 39.208700 -15.140800 -24.328900 0.000322 -0.000009 2.209170 8.364700 -14.858500 -22.291500 -0.000108 -0.000004 9.676390 5.396150 -2.812710 -2.192480 -6.469440 -0.000000 -174.576000 -8.704050 -2.113210 39.081100 -0.000007 -0.000012 -0.117392 0.282810 22.543000 40.985400 -0.000006 -0.000013 -0.879811 5.275030 -65.311600 11.754300 -0.000000 0.000003 -0.000044 -0.000510 -16.597400 -2.192510 6.469440 -0.000001 -179.891000 14.641300 -179.720000 -39.081100 -0.002282 -0.040193 -0.075901 0.220429 19.768500 -40.985400 0.000008 0.000006 3.343990 8.445310 -65.487400 -11.754300 -0.000006 -0.000006 -0.009150 -0.097176 -20.531400
0.000000 0.000000 0.000000 0.000000 0.000000 -0.000000 -2.057620 92.328700 -1.539960 88.564200 -0.372771 5.154280 15.735700 0.000005 -0.000001 76.175400 85.229600 -74.409100 8.984550 -0.406207 -0.000000 1.538830 -2.374520 3.561740 16.377300 -0.000001 -0.000001 4.852140 -1.400040 -3.674790 6.456720 -0.000001 -0.000000 7.918990 -1.308750 -2.043820 12.994200 -0.242716 4.980390 -87.299700 -7.268220 -69.554500 5.348090 -0.000007 -0.000001 -82.280100 -27.626300 -91.078700 24.328600 0.000019 0.000005 2.794830 0.117710 -87.590400 22.291600 -0.000001 0.000005 19.271500 5.609240 -11.911000 12.994500 -0.242716 -4.980390 88.466200 4.893700 -72.574100 -5.348130 -0.000001 -0.000004 -64.875400 39.216900 -15.208600 -24.328900 0.000322 -0.000009 2.213170 8.401190 -14.822800 -22.291500 -0.000108 -0.000004 9.627770 5.395060 -2.777450 -2.192480 -6.469440 -0.000000 -174.608000 -8.672360 -2.061660 39.081100 -0.000007 -0.000012 -0.115701 0.279269 22.504300 40.985400 -0.000006 -0.000013 -0.867699 5.316870 -65.282500 11.754300 -0.000000 0.000003 -0.000042 -0.000486 -16.596500 -2.192510 6.469440 -0.000001 -179.927000 14.588400 -179.659000 -39.081100 -0.002282 -0.040193 -0.076065 0.221189 19.743700 -40.985400 0.000008 0.000006 3.232890 8.343800 -65.458500 -11.754300 -0.000006 -0.000006 -0.008868 -0.094977 -20.441500
0.000000 0.000000 0.000000 0.000000 0.000000 -0.000000 -2.040620 92.321800 -1.544640 88.564000 -0.343269 5.160920 15.735700 0.000005 -0.000001 76.203500 85.209600 -74.450600 8.984550 -0.406207 -0.000000 1.578510 -2.378140 3.535770 16.377300 -0.000001 -0.000001 4.810500 -1.271900 -3.742120 6.456720 -0.000001 -0.000000 7.980140 -1.113120 -2.239860 12.994200 -0.242716 4.980390 -87.319500 -7.224070 -69.579000 5.348090 -0.000007 -0.000001 -81.273700 -27.864300 -88.579300 24.328600 0.000019 0.000005 2.399630 0.034394 -89.181100 22.291600 -0.000001 0.000005 20.157700 5.611500 -12.054300 12.994500 -0.242716 -4.980390 88.449100 4.926200 -72.500800 -5.348130 -0.000001 -0.000004 -64.876300 39.364600 -15.377800 -24.328900 0.000322 -0.000009 2.179340 8.234250 -14.887000 -22.291500 -0.000108 -0.000004 9.618800 5.396130 -2.811930 -2.192480 -6.469440 -0.000000 -174.613000 -8.694170 -2.098620 39.081100 -0.000007 -0.000012 -0.117182 0.281973 22.566800 40.985400 -0.000006 -0.000013 -0.846001 5.355800 -65.303700 11.754300 -0.000000 0.000003 -0.000046 -0.000523 -16.597900 -2.192510 6.469440 -0.000001 -179.934000 14.544600 -179.683000 -39.081100 -0.002282 -0.040193 -0.077173 0.223623 19.796800 -40.985400 0.000008 0.000006 3.181220 8.282040 -65.471700 -11.754300 -0.000006 -0.000006 -0.008927 -0.095434 -20.460200
